<svg xmlns="http://www.w3.org/2000/svg" width="183" height="40" viewBox="0 0 183 40" fill="none">
  <path d="M7.98749 40L0 32.0115V7.98749L7.98749 0H13.3227V32.0115H24.7477V40H7.98749Z" fill="white"/>
  <path d="M25.3502 11.9966V7.98749H15.4332V0H31.6805L38.6739 7.98749V11.9966H25.3502Z" fill="white"/>
  <path d="M26.8572 40V25.7418H20.3768V17.815H38.6739V40H26.8572Z" fill="#ED6B27"/>
  <path d="M182.365 26.2856H101.535V35.8869H182.365V26.2856Z" fill="#ED6B27"/>
  <path d="M54.3823 19.5549C52.6895 19.5549 51.2787 19.4009 50.1499 19.0911C49.0211 18.7822 48.1155 18.2904 47.4332 17.6167C46.7509 16.9431 46.2678 16.0789 45.9858 15.0232C45.7038 13.9675 45.5624 12.6847 45.5624 11.1738V8.47059C45.5624 7.03284 45.7125 5.78564 46.0128 4.72994C46.313 3.67425 46.8221 2.80044 47.5419 2.10851C48.2608 1.41658 49.2164 0.902685 50.4088 0.565864C51.6011 0.229042 53.0889 0.0606308 54.8731 0.0606308H57.9719C58.454 0.0606308 58.9409 0.0654425 59.4327 0.0741036C59.9245 0.0837271 60.4605 0.0972 61.0437 0.115485L60.3335 3.88308C59.4779 3.86479 58.7456 3.85132 58.1355 3.8417C57.5253 3.83304 57.0028 3.82822 56.5659 3.82822H54.5998C53.7077 3.82822 52.9792 3.89174 52.4153 4.01973C51.8504 4.14772 51.4048 4.37965 51.0776 4.71551C50.7504 5.05233 50.5271 5.52581 50.4088 6.13497C50.2904 6.7451 50.2317 7.54096 50.2317 8.52448V11.0911C50.2317 12.1112 50.2952 12.9253 50.4232 13.5345C50.5502 14.1446 50.7687 14.6219 51.0786 14.9684C51.3875 15.3148 51.8061 15.5419 52.3344 15.6507C52.8618 15.7594 53.5268 15.8143 54.3274 15.8143H57.1125V12.2651H54.0541L54.8182 8.55143H61.6442V16.6611C61.6442 17.1346 61.5989 17.5484 61.5075 17.9035C61.4161 18.2586 61.2477 18.5589 61.0023 18.8043C60.7569 19.0497 60.4239 19.2373 60.0053 19.3644C59.5867 19.4924 59.0497 19.5559 58.3943 19.5559H54.3804L54.3823 19.5549Z" fill="white"/>
  <path d="M76.9349 11.5549H68.8252V15.7594H78.6816L77.9444 19.5549H64.3195V0.114521H78.518L77.8078 3.91002H68.8252V7.75942H77.6442L76.934 11.5549H76.9349Z" fill="white"/>
  <path d="M89.9045 8.08661C90.8505 8.25021 91.6425 8.47829 92.2796 8.76892C92.9167 9.06051 93.4267 9.42909 93.8088 9.87466C94.1908 10.3212 94.4641 10.8486 94.6277 11.4587C94.7913 12.0688 94.8731 12.7742 94.8731 13.5749V13.9848C94.8731 14.9674 94.7451 15.8104 94.4911 16.51C94.236 17.2106 93.8087 17.7929 93.2082 18.2577C92.6077 18.7215 91.8157 19.0632 90.8332 19.2816C89.8506 19.5001 88.639 19.6088 87.2013 19.6088H84.3749C83.8196 19.6088 83.1912 19.604 82.4906 19.5953C81.79 19.5857 80.9932 19.5722 80.1011 19.554L80.7834 15.8951C82.2211 15.9317 83.4452 15.95 84.4557 15.95H87.2542C87.8547 15.95 88.3503 15.9182 88.742 15.8547C89.1337 15.7912 89.4426 15.6863 89.6706 15.541C89.8978 15.3956 90.0527 15.1993 90.1345 14.9539C90.2163 14.7085 90.2577 14.3938 90.2577 14.0118C90.2577 13.6663 90.2346 13.3747 90.1894 13.138C90.1441 12.9012 90.0431 12.7059 89.8891 12.5509C89.7342 12.397 89.5244 12.269 89.2607 12.1689C88.997 12.0688 88.6467 11.9822 88.2098 11.9091L85.343 11.4173C84.2873 11.2354 83.4221 11.0035 82.7494 10.7215C82.0758 10.4396 81.5436 10.0796 81.1519 9.64273C80.7603 9.20582 80.4918 8.68712 80.3465 8.08661C80.2002 7.48611 80.128 6.78552 80.128 5.98388V5.54698C80.128 4.67316 80.255 3.89944 80.5101 3.22579C80.7651 2.55215 81.1837 1.97955 81.7659 1.50608C82.3481 1.0326 83.1084 0.673645 84.0457 0.427284C84.9831 0.181885 86.1254 0.0587044 87.4726 0.0587044H90.4348C90.9717 0.0587044 91.554 0.0635161 92.1824 0.0721772C92.8108 0.0818007 93.5249 0.0952736 94.3255 0.113558L93.6432 3.77241C92.2238 3.73584 91.017 3.71755 90.0258 3.71755H87.3908C86.8452 3.71755 86.39 3.74931 86.0253 3.81283C85.6605 3.8773 85.3786 3.97642 85.1784 4.11308C84.9782 4.24973 84.8368 4.43643 84.755 4.67316C84.6732 4.9099 84.6318 5.20149 84.6318 5.54698C84.6318 5.85685 84.6539 6.12054 84.7001 6.33899C84.7454 6.55744 84.8368 6.73933 84.9734 6.88464C85.1101 7.03092 85.3054 7.15314 85.5605 7.25322C85.8155 7.3533 86.1513 7.43992 86.5709 7.51305L89.9016 8.08661H89.9045Z" fill="white"/>
  <path d="M101.535 13.0013V19.554H97.1394V0.114521H104.921C107.578 0.114521 109.481 0.587996 110.628 1.53398C111.775 2.48094 112.348 3.97354 112.348 6.01179V7.10406C112.348 9.08842 111.761 10.5675 110.587 11.5405C109.413 12.5144 107.506 13.0013 104.867 13.0013H101.536H101.535ZM107.843 6.39384C107.843 5.86648 107.788 5.43438 107.679 5.0966C107.57 4.75978 107.392 4.49128 107.147 4.29111C106.901 4.09094 106.578 3.95429 106.178 3.88115C105.777 3.80898 105.277 3.77144 104.677 3.77144H101.536V9.34151H104.677C105.277 9.34151 105.777 9.30494 106.178 9.23277C106.578 9.16059 106.901 9.02394 107.147 8.82281C107.392 8.62264 107.57 8.35415 107.679 8.01732C107.788 7.6805 107.843 7.24841 107.843 6.72008V6.39288V6.39384Z" fill="white"/>
  <path d="M119.255 0.114521V15.7594H128.402L127.665 19.5549H114.75V0.114521H119.255Z" fill="white"/>
  <path d="M142.082 14.8587H135.093L133.563 19.5549H129.031L136.048 0.114521H141.345L148.389 19.5549H143.666L142.082 14.8587ZM136.184 11.3365H140.989L138.559 4.10057L136.184 11.3365Z" fill="white"/>
  <path d="M159.173 8.08661C160.119 8.25021 160.911 8.47829 161.548 8.76892C162.185 9.06051 162.696 9.42909 163.078 9.87466C163.46 10.3212 163.733 10.8486 163.897 11.4587C164.06 12.0688 164.142 12.7742 164.142 13.5749V13.9848C164.142 14.9674 164.014 15.8104 163.76 16.51C163.505 17.2106 163.078 17.7929 162.477 18.2577C161.877 18.7215 161.085 19.0632 160.102 19.2816C159.119 19.5001 157.908 19.6088 156.47 19.6088H153.644C153.088 19.6088 152.46 19.604 151.759 19.5953C151.059 19.5857 150.262 19.5722 149.37 19.554L150.052 15.8951C151.49 15.9317 152.714 15.95 153.725 15.95H156.523C157.124 15.95 157.619 15.9182 158.011 15.8547C158.403 15.7912 158.711 15.6863 158.939 15.541C159.167 15.3956 159.322 15.1993 159.403 14.9539C159.485 14.7085 159.527 14.3938 159.527 14.0118C159.527 13.6663 159.503 13.3747 159.458 13.138C159.413 12.9012 159.312 12.7059 159.158 12.5509C159.003 12.397 158.793 12.269 158.53 12.1689C158.266 12.0688 157.916 11.9822 157.479 11.9091L154.612 11.4173C153.556 11.2354 152.691 11.0035 152.018 10.7215C151.345 10.4396 150.812 10.0796 150.421 9.64273C150.029 9.20582 149.761 8.68712 149.615 8.08661C149.469 7.48611 149.397 6.78552 149.397 5.98388V5.54698C149.397 4.67316 149.524 3.89944 149.779 3.22579C150.034 2.55215 150.453 1.97955 151.035 1.50608C151.617 1.0326 152.377 0.673645 153.315 0.427284C154.252 0.181885 155.394 0.0587044 156.741 0.0587044H159.704C160.241 0.0587044 160.823 0.0635161 161.451 0.0721772C162.08 0.0818007 162.794 0.0952736 163.594 0.113558L162.912 3.77241C161.493 3.73584 160.286 3.71755 159.295 3.71755H156.66C156.114 3.71755 155.658 3.74931 155.294 3.81283C154.929 3.8773 154.647 3.97642 154.448 4.11308C154.248 4.24973 154.107 4.43643 154.025 4.67316C153.943 4.9099 153.902 5.20149 153.902 5.54698C153.902 5.85685 153.925 6.12054 153.97 6.33899C154.015 6.55744 154.107 6.73933 154.243 6.88464C154.38 7.03092 154.575 7.15314 154.83 7.25322C155.085 7.3533 155.421 7.43992 155.841 7.51305L159.171 8.08661H159.173Z" fill="white"/>
  <path d="M182.491 0.114521L181.754 3.91002H175.911V19.5549H171.406V3.91002H164.907L165.617 0.114521H182.491Z" fill="white"/>
  <path d="M52.6462 35.4247C52.3912 35.6538 52.0611 35.8414 51.6531 35.9877C51.246 36.134 50.6792 36.2071 49.9536 36.2071C49.0624 36.2071 48.3339 36.1022 47.7671 35.8925C47.2003 35.6827 46.7547 35.3766 46.4304 34.9763C46.1061 34.576 45.88 34.0852 45.7529 33.5058C45.6259 32.9265 45.5624 32.2615 45.5624 31.5109V31.0721C45.5624 30.3464 45.6201 29.694 45.7346 29.1156C45.8492 28.5363 46.0715 28.0435 46.4025 27.6355C46.7336 27.2284 47.1945 26.9166 47.7864 26.7001C48.3782 26.4836 49.1519 26.3758 50.1056 26.3758C51.0593 26.3758 51.833 26.4836 52.4249 26.7001C53.0167 26.9166 53.4748 27.2188 53.7991 27.6066C54.1234 27.9954 54.3428 28.4593 54.4574 29.0001C54.5719 29.541 54.6296 30.1357 54.6296 30.7853V35.596C54.6296 36.3852 54.544 37.053 54.3717 37.6006C54.1995 38.1482 53.929 38.5938 53.5605 38.9373C53.1909 39.2809 52.7174 39.5321 52.1381 39.6918C51.5588 39.8506 50.8688 39.9305 50.0662 39.9305H48.4619C48.1944 39.9305 47.9086 39.9276 47.6026 39.9208C47.2975 39.9141 46.953 39.9045 46.5719 39.892L46.9539 38.231C47.59 38.256 48.1405 38.2695 48.6053 38.2695H50.0469C50.5175 38.2695 50.9188 38.2281 51.2499 38.1453C51.5809 38.0625 51.8513 37.922 52.0611 37.7257C52.2709 37.5284 52.421 37.258 52.5096 36.9145C52.5981 36.5709 52.6433 36.1321 52.6433 35.597V35.4247H52.6462ZM50.1268 34.5654C50.6609 34.5654 51.0911 34.5269 51.4154 34.4509C51.7397 34.3748 51.9947 34.2411 52.1795 34.0496C52.3643 33.859 52.4884 33.6078 52.5519 33.2951C52.6154 32.9833 52.6472 32.5858 52.6472 32.1018V31.1856C52.6472 30.536 52.6251 30.0048 52.5808 29.591C52.5365 29.1772 52.4307 28.8558 52.2661 28.6267C52.1006 28.3977 51.8494 28.2389 51.5116 28.1494C51.1738 28.0609 50.7129 28.0156 50.1278 28.0156C49.5427 28.0156 49.0807 28.0599 48.7439 28.1494C48.4061 28.2389 48.1549 28.3977 47.9894 28.6267C47.8239 28.8558 47.719 29.1772 47.6747 29.591C47.6305 30.0048 47.6083 30.536 47.6083 31.1856V31.3954C47.6083 32.045 47.6305 32.5762 47.6747 32.99C47.719 33.4038 47.8277 33.7252 47.999 33.9543C48.1713 34.1833 48.4225 34.3431 48.7535 34.4316C49.0846 34.5211 49.5427 34.5654 50.1278 34.5654H50.1268Z" fill="white"/>
  <path d="M56.8469 36.5509V29.7924C56.8469 29.2198 56.9354 28.7328 57.1144 28.3315C57.2924 27.9302 57.5436 27.6059 57.8689 27.3576C58.1942 27.1093 58.5849 26.9284 59.043 26.8139C59.501 26.6994 60.0101 26.6416 60.5702 26.6416H61.9829C62.314 26.6416 62.5873 26.6484 62.8038 26.6609L62.4603 28.3219H62.2697C62.1552 28.3219 62.0147 28.319 61.8501 28.3123C61.6846 28.3065 61.5066 28.3027 61.316 28.3027H60.7627C60.3171 28.3027 59.9668 28.344 59.7127 28.4268C59.4577 28.5096 59.2672 28.6337 59.1401 28.7992C59.0131 28.9648 58.9332 29.1688 58.9015 29.4103C58.8697 29.6519 58.8534 29.9261 58.8534 30.2312V36.5509H56.8488H56.8469Z" fill="white"/>
  <path d="M68.1872 26.3751C69.0148 26.3751 69.7173 26.4482 70.2966 26.5945C70.876 26.7408 71.3494 26.9958 71.719 27.3586C72.0876 27.7214 72.3589 28.2055 72.5302 28.8098C72.7025 29.4142 72.7882 30.1754 72.7882 31.0915V32.1415C72.7882 33.0576 72.7025 33.8188 72.5302 34.4232C72.358 35.0275 72.0876 35.5116 71.719 35.8744C71.3494 36.2372 70.876 36.4922 70.2966 36.6385C69.7173 36.7848 69.0138 36.8579 68.1872 36.8579C67.3605 36.8579 66.6561 36.7848 66.0777 36.6385C65.4984 36.4922 65.0239 36.2372 64.6553 35.8744C64.2858 35.5116 64.0154 35.0285 63.8441 34.4232C63.6718 33.8188 63.5862 33.0586 63.5862 32.1415V31.0915C63.5862 30.1754 63.6718 29.4151 63.8441 28.8098C64.0164 28.2055 64.2858 27.7214 64.6553 27.3586C65.0239 26.9958 65.4984 26.7417 66.0777 26.5945C66.657 26.4482 67.3595 26.3751 68.1872 26.3751ZM70.7461 31.0906C70.7461 30.416 70.7104 29.878 70.6412 29.4777C70.5709 29.0764 70.4439 28.7684 70.2591 28.5519C70.0743 28.3354 69.8164 28.192 69.4863 28.1227C69.1553 28.0524 68.7222 28.0178 68.1881 28.0178C67.654 28.0178 67.221 28.0534 66.8899 28.1227C66.5589 28.1929 66.301 28.3363 66.1172 28.5519C65.9324 28.7684 65.8054 29.0773 65.7351 29.4777C65.6649 29.879 65.6302 30.416 65.6302 31.0906V32.1405C65.6302 32.8151 65.6649 33.3531 65.7351 33.7534C65.8054 34.1547 65.9324 34.4636 66.1172 34.6792C66.3019 34.8957 66.5589 35.0391 66.8899 35.1084C67.221 35.1786 67.654 35.2133 68.1881 35.2133C68.7222 35.2133 69.1553 35.1786 69.4863 35.1084C69.8174 35.0381 70.0753 34.8957 70.2591 34.6792C70.4439 34.4626 70.5709 34.1537 70.6412 33.7534C70.7114 33.3521 70.7461 32.8151 70.7461 32.1405V31.0906Z" fill="white"/>
  <path d="M79.1079 36.856C77.6692 36.856 76.5875 36.6145 75.8619 36.1304C75.1363 35.6463 74.7735 34.8197 74.7735 33.6485V26.6801H76.7781V33.2482C76.7781 33.5667 76.7973 33.8467 76.8358 34.0883C76.8743 34.3298 76.9696 34.5339 77.1226 34.6994C77.2756 34.8649 77.5075 34.9891 77.8193 35.0718C78.1311 35.1546 78.5603 35.196 79.1079 35.196C79.6555 35.196 80.0818 35.1546 80.3869 35.0718C80.6919 34.9891 80.9219 34.8649 81.074 34.6994C81.227 34.5339 81.3223 34.3308 81.3608 34.0883C81.3993 33.8467 81.4185 33.5667 81.4185 33.2482V26.6801H83.4231V33.6485C83.4231 34.8197 83.0603 35.6473 82.3347 36.1304C81.6091 36.6135 80.5332 36.856 79.1079 36.856Z" fill="white"/>
  <path d="M90.1999 26.3751C91.0141 26.3751 91.7079 26.4482 92.2805 26.5945C92.8531 26.7408 93.3208 26.9987 93.6836 27.3682C94.0464 27.7378 94.3101 28.2305 94.4756 28.8483C94.6412 29.4661 94.7239 30.2456 94.7239 31.1868V32.0462C94.7239 32.8863 94.6575 33.609 94.5238 34.2134C94.39 34.8178 94.1542 35.3143 93.8174 35.7022C93.4796 36.0909 93.0186 36.3796 92.4335 36.5712C91.8475 36.7617 91.0968 36.8579 90.1807 36.8579C89.5821 36.8579 89.0759 36.7848 88.6631 36.6385C88.2493 36.4922 87.9153 36.3046 87.6603 36.0755V39.8941H85.6365V31.0925C85.6365 30.1889 85.7221 29.4344 85.8944 28.83C86.0666 28.2257 86.3361 27.7416 86.7056 27.3788C87.0742 27.016 87.5458 26.7581 88.1184 26.6051C88.691 26.4521 89.3848 26.376 90.199 26.376L90.1999 26.3751ZM90.1807 35.2142C90.7158 35.2142 91.145 35.1757 91.4693 35.0997C91.7936 35.0237 92.0486 34.8707 92.2334 34.6416C92.4181 34.4126 92.5384 34.0912 92.5962 33.6774C92.6539 33.2636 92.6818 32.7198 92.6818 32.0452V31.1859C92.6818 30.4862 92.6501 29.929 92.5866 29.5152C92.523 29.1014 92.3989 28.7838 92.2141 28.5606C92.0294 28.3383 91.7753 28.192 91.45 28.1217C91.1257 28.0515 90.7023 28.0168 90.1807 28.0168C89.6591 28.0168 89.2511 28.0524 88.921 28.1217C88.5899 28.192 88.3291 28.3354 88.1386 28.5509C87.948 28.7675 87.8172 29.0764 87.7469 29.4767C87.6767 29.878 87.642 30.415 87.642 31.0896V32.4456C87.642 33.0057 87.6805 33.4637 87.7565 33.8198C87.8326 34.1759 87.9663 34.4598 88.1578 34.6696C88.3484 34.8793 88.6092 35.0227 88.9402 35.0988C89.2713 35.1748 89.6851 35.2133 90.1816 35.2133L90.1807 35.2142Z" fill="white"/>
</svg>