<svg xmlns="http://www.w3.org/2000/svg" width="183" height="40" fill="none"><path d="M7.987 40 0 32.011V7.987L7.987 0h5.336v32.011h11.425V40H7.988Z" fill="#fff"/><path d="M25.35 11.997v-4.01h-9.917V0H31.68l6.994 7.987v4.01H25.35Z" fill="#fff"/><path d="M26.857 40V25.742h-6.48v-7.927h18.297V40H26.857Zm155.508-13.714h-80.83v9.6h80.83v-9.6Z" fill="#ED6B27"/><path d="M54.382 19.555c-1.692 0-3.103-.154-4.232-.464-1.129-.309-2.035-.8-2.717-1.474-.682-.674-1.165-1.538-1.447-2.594-.282-1.056-.424-2.338-.424-3.85V8.472c0-1.438.15-2.685.45-3.741.301-1.056.81-1.93 1.53-2.621.719-.692 1.674-1.206 2.867-1.543C51.6.229 53.089.06 54.873.06h3.099c.482 0 .969.004 1.46.013.492.01 1.029.023 1.612.041l-.71 3.768c-.856-.018-1.588-.032-2.199-.041-.61-.009-1.132-.014-1.57-.014H54.6c-.892 0-1.62.064-2.185.192s-1.01.36-1.337.696c-.328.336-.55.81-.67 1.419-.118.61-.176 1.406-.176 2.39v2.566c0 1.02.063 1.834.191 2.444.127.61.346 1.087.656 1.433.309.347.727.574 1.255.683.528.108 1.193.163 1.993.163h2.785v-3.549h-3.058l.764-3.714h6.826v8.11c0 .474-.045.887-.136 1.242-.092.356-.26.656-.506.901-.245.246-.578.433-.997.56-.418.128-.955.192-1.61.192H54.38l.002-.001Zm22.553-8h-8.11v4.204h9.857l-.738 3.796H64.32V.115h14.198l-.71 3.795h-8.983v3.85h8.82l-.711 3.795Zm12.969-3.468c.947.163 1.739.391 2.376.682.637.292 1.147.66 1.529 1.106.382.446.655.974.819 1.584.163.61.245 1.315.245 2.116v.41c0 .982-.128 1.825-.382 2.525a3.827 3.827 0 0 1-1.283 1.748c-.6.463-1.392.805-2.375 1.024-.982.218-2.194.327-3.632.327h-2.826c-.555 0-1.184-.005-1.884-.014-.701-.01-1.498-.023-2.39-.041l.682-3.659c1.438.037 2.662.055 3.673.055h2.798c.6 0 1.096-.032 1.488-.095.392-.064.7-.169.929-.314.227-.145.382-.342.463-.587.082-.245.124-.56.124-.942 0-.346-.023-.637-.069-.874a1.106 1.106 0 0 0-.3-.587 1.77 1.77 0 0 0-.628-.382 5.704 5.704 0 0 0-1.051-.26l-2.867-.492c-1.056-.182-1.92-.413-2.594-.695-.673-.282-1.205-.642-1.597-1.08a3.536 3.536 0 0 1-.805-1.555c-.147-.6-.219-1.301-.219-2.103v-.437c0-.874.127-1.648.382-2.321a4.025 4.025 0 0 1 1.256-1.72c.582-.473 1.342-.832 2.28-1.079.937-.245 2.08-.368 3.427-.368h2.962c.537 0 1.119.005 1.747.013.629.01 1.343.023 2.144.042l-.683 3.658c-1.42-.036-2.626-.054-3.617-.054H87.39c-.546 0-1.001.031-1.366.095-.365.064-.646.163-.847.3a1.09 1.09 0 0 0-.423.56 2.7 2.7 0 0 0-.123.874c0 .31.022.574.068.792.045.218.137.4.273.546.137.146.332.268.588.368.254.1.59.187 1.01.26l3.33.574h.004Zm11.631 4.914v6.553h-4.396V.114h7.782c2.657 0 4.56.474 5.707 1.42 1.147.947 1.72 2.44 1.72 4.478v1.092c0 1.984-.587 3.464-1.761 4.436-1.174.974-3.081 1.461-5.72 1.461h-3.332Zm6.308-6.607c0-.528-.055-.96-.164-1.297a1.68 1.68 0 0 0-.532-.806c-.246-.2-.569-.337-.969-.41a8.666 8.666 0 0 0-1.501-.11h-3.141v5.57h3.141c.6 0 1.1-.036 1.501-.108.4-.072.723-.21.969-.41.245-.2.423-.469.532-.806.109-.336.164-.769.164-1.297v-.327ZM119.255.115v15.644h9.147l-.737 3.796H114.75V.115h4.505Zm22.827 14.744h-6.989l-1.53 4.696h-4.532l7.017-19.44h5.297l7.044 19.44h-4.723l-1.584-4.696Zm-5.898-3.523h4.805l-2.43-7.235-2.375 7.235Zm22.989-3.249c.946.163 1.738.391 2.375.682.637.292 1.148.66 1.53 1.106.382.446.655.974.819 1.584.163.61.245 1.315.245 2.116v.41c0 .982-.128 1.825-.382 2.525a3.823 3.823 0 0 1-1.283 1.748c-.6.463-1.392.805-2.375 1.024-.983.218-2.194.327-3.632.327h-2.826c-.556 0-1.184-.005-1.885-.014-.7-.01-1.497-.023-2.389-.041l.682-3.659c1.438.037 2.662.055 3.673.055h2.798a9.57 9.57 0 0 0 1.488-.095c.392-.064.7-.169.928-.314.228-.145.383-.342.464-.587.082-.245.124-.56.124-.942 0-.346-.024-.637-.069-.874a1.103 1.103 0 0 0-.3-.587 1.776 1.776 0 0 0-.628-.382 5.71 5.71 0 0 0-1.051-.26l-2.867-.492c-1.056-.182-1.921-.413-2.594-.695-.673-.282-1.206-.642-1.597-1.08a3.54 3.54 0 0 1-.806-1.555c-.146-.6-.218-1.301-.218-2.103v-.437c0-.874.127-1.648.382-2.321a4.027 4.027 0 0 1 1.256-1.72c.582-.473 1.342-.832 2.28-1.079.937-.245 2.079-.368 3.426-.368h2.963c.537 0 1.119.005 1.747.013.629.01 1.343.023 2.143.042l-.682 3.658a143.895 143.895 0 0 0-3.617-.054h-2.635a8.11 8.11 0 0 0-1.366.095c-.365.064-.647.163-.846.3-.2.137-.341.323-.423.56a2.694 2.694 0 0 0-.123.874c0 .31.023.574.068.792.045.218.137.4.273.546.137.146.332.268.587.368.255.1.591.187 1.011.26l3.33.574h.002ZM182.491.115l-.737 3.795h-5.843v15.645h-4.505V3.91h-6.499l.71-3.795h16.874ZM52.646 35.425c-.255.229-.585.416-.993.563-.407.146-.974.22-1.7.22-.89 0-1.62-.106-2.186-.316-.567-.21-1.012-.515-1.337-.916-.324-.4-.55-.89-.677-1.47a9.374 9.374 0 0 1-.19-1.995v-.439c0-.726.057-1.378.172-1.956.114-.58.337-1.072.668-1.48.33-.408.791-.72 1.383-.936.592-.216 1.366-.324 2.32-.324.953 0 1.727.108 2.319.324.592.217 1.05.519 1.374.907.324.388.544.852.658 1.393.115.541.173 1.136.173 1.785v4.811c0 .79-.086 1.457-.258 2.005-.172.547-.443.993-.812 1.336-.37.344-.843.595-1.422.755-.58.159-1.27.239-2.072.239h-1.604c-.268 0-.553-.003-.86-.01-.304-.007-.649-.017-1.03-.029l.382-1.661a43.05 43.05 0 0 0 1.651.038h1.442c.47 0 .872-.04 1.203-.124.33-.083.601-.223.811-.42.21-.197.36-.467.449-.81.088-.344.133-.783.133-1.318v-.172h.003Zm-2.52-.86c.535 0 .965-.038 1.29-.114.324-.076.579-.21.764-.401.184-.191.308-.442.372-.755a6.15 6.15 0 0 0 .095-1.193v-.916c0-.65-.022-1.181-.066-1.595-.045-.414-.15-.735-.315-.964-.165-.23-.417-.388-.754-.478-.338-.088-.8-.133-1.384-.133-.585 0-1.047.044-1.384.133-.338.09-.59.249-.755.478-.165.229-.27.55-.314.964a15.59 15.59 0 0 0-.067 1.595v.21c0 .649.023 1.18.067 1.594.044.414.153.735.324.964.172.23.423.39.755.478.33.09.789.133 1.374.133h-.001Zm6.721 1.985v-6.758c0-.572.088-1.06.267-1.46.178-.402.43-.726.755-.974.325-.249.716-.43 1.174-.544a6.3 6.3 0 0 1 1.527-.172h1.413c.331 0 .604.006.82.019l-.343 1.66h-.19c-.115 0-.255-.002-.42-.009-.165-.006-.343-.01-.534-.01h-.553c-.446 0-.796.042-1.05.125-.255.083-.446.207-.573.372-.127.166-.207.37-.239.611a6.343 6.343 0 0 0-.048.821v6.32h-2.006Zm11.34-10.175c.828 0 1.53.073 2.11.22.579.146 1.052.4 1.422.764.369.362.64.846.811 1.45.172.605.258 1.366.258 2.282v1.05c0 .917-.085 1.678-.258 2.282-.172.605-.442 1.089-.811 1.451-.37.363-.843.618-1.422.764-.58.147-1.283.22-2.11.22-.826 0-1.53-.073-2.11-.22-.579-.146-1.053-.4-1.422-.764-.37-.362-.64-.846-.81-1.45-.173-.605-.259-1.365-.259-2.282v-1.05c0-.917.086-1.677.258-2.282.172-.604.442-1.089.811-1.451.369-.363.843-.617 1.423-.765.579-.146 1.281-.219 2.11-.219Zm2.56 4.716c0-.675-.037-1.213-.106-1.613-.07-.402-.197-.71-.382-.926-.185-.217-.443-.36-.773-.43s-.764-.104-1.298-.104-.967.035-1.298.105c-.331.07-.589.213-.773.429-.185.216-.312.525-.382.926s-.105.938-.105 1.613v1.05c0 .674.035 1.212.105 1.612.07.402.197.71.382.926.185.217.442.36.773.43s.764.104 1.298.104.967-.034 1.298-.105c.331-.07.59-.212.773-.429.185-.216.312-.525.382-.926.07-.4.105-.938.105-1.612v-1.05Zm8.361 5.765c-1.439 0-2.52-.242-3.246-.726s-1.088-1.31-1.088-2.482V26.68h2.004v6.568c0 .319.02.599.058.84.038.242.134.446.287.611.153.166.384.29.696.373.312.083.741.124 1.289.124.547 0 .974-.041 1.279-.124.305-.083.535-.207.687-.373a1.14 1.14 0 0 0 .287-.61c.038-.242.057-.522.057-.84V26.68h2.005v6.968c0 1.172-.363 2-1.088 2.482-.726.483-1.802.726-3.227.726ZM90.2 26.375c.814 0 1.508.073 2.08.22.573.146 1.04.404 1.404.773.362.37.626.863.792 1.48.165.618.248 1.398.248 2.339v.86c0 .84-.067 1.562-.2 2.166-.134.605-.37 1.101-.707 1.49-.337.388-.798.677-1.383.868-.587.19-1.337.287-2.253.287-.599 0-1.105-.073-1.518-.22-.414-.146-.748-.333-1.003-.563v3.82h-2.023v-8.803c0-.903.085-1.658.257-2.262.173-.604.442-1.088.812-1.451.368-.363.84-.62 1.412-.774.573-.153 1.267-.229 2.081-.229Zm-.02 8.84c.536 0 .965-.04 1.29-.115a1.34 1.34 0 0 0 .763-.458c.185-.23.305-.55.363-.965.058-.413.086-.957.086-1.632v-.86c0-.699-.032-1.256-.095-1.67-.064-.414-.188-.731-.373-.954-.185-.223-.439-.369-.764-.44-.324-.07-.748-.104-1.27-.104-.52 0-.929.035-1.259.105-.331.07-.592.213-.782.429-.191.216-.322.525-.392.926s-.105.938-.105 1.613v1.356c0 .56.038 1.018.115 1.374.076.356.21.64.4.85.191.21.452.353.783.429.331.076.745.114 1.242.114l-.001.001Z" fill="#fff"/></svg>